<svg xmlns="http://www.w3.org/2000/svg" width="87" height="16" viewBox="0 0 87 16">
    <g fill="none" fill-rule="evenodd">
        <g fill="#1A3546" fill-rule="nonzero">
            <path d="M32.043 48c1.421 0 2.732-.335 3.934-1.005 1.2-.67 2.138-1.582 2.812-2.733l-3.823-2.185c-.25.51-.634.91-1.154 1.202-.52.291-1.11.437-1.77.437-1.083 0-1.962-.35-2.636-1.05-.674-.699-1.011-1.588-1.011-2.666 0-1.078.337-1.967 1.01-2.667.675-.7 1.554-1.049 2.638-1.049.645 0 1.23.146 1.758.437.527.292.916.685 1.165 1.18l3.823-2.185c-.674-1.137-1.611-2.04-2.812-2.71-1.202-.67-2.513-1.006-3.934-1.006-2.315 0-4.234.765-5.758 2.295C24.762 35.825 24 37.727 24 40s.762 4.175 2.285 5.705C27.81 47.235 29.728 48 32.043 48zm12.504-.044c1.26 0 2.241-.43 2.945-1.29v.984h4.065V36.721h-4.065v.984c-.704-.86-1.685-1.29-2.945-1.29-1.48 0-2.688.547-3.626 1.64-.938 1.093-1.406 2.47-1.406 4.13 0 1.662.468 3.039 1.406 4.132.938 1.093 2.146 1.64 3.626 1.64zm.989-3.716c-.586 0-1.062-.196-1.429-.59-.351-.393-.527-.881-.527-1.464s.18-1.071.538-1.465c.36-.393.832-.59 1.418-.59s1.058.197 1.417.59c.36.394.539.882.539 1.465 0 .583-.18 1.07-.539 1.464-.359.394-.831.59-1.417.59zm10.12 2.82c.974.714 2.61.91 4.91.59v-3.628c-.497.029-.918.033-1.263.01-.344-.021-.604-.12-.78-.294-.176-.175-.264-.445-.264-.809v-2.36h2.308V36.72h-2.308v-3.06l-4.065 1.202v1.858h-1.538v3.847h1.538v2.58c0 1.894.487 3.198 1.461 3.912zm14.162.94c1.421 0 2.733-.335 3.934-1.005 1.201-.67 2.139-1.582 2.813-2.733l-3.824-2.185c-.249.51-.634.91-1.154 1.202-.52.291-1.11.437-1.769.437-1.084 0-1.963-.35-2.637-1.05-.674-.699-1.01-1.588-1.01-2.666 0-1.078.336-1.967 1.01-2.667.674-.7 1.553-1.049 2.637-1.049.645 0 1.231.146 1.758.437.528.292.916.685 1.165 1.18l3.824-2.185c-.674-1.137-1.612-2.04-2.813-2.71-1.201-.67-2.513-1.006-3.934-1.006-2.314 0-4.234.765-5.757 2.295-1.524 1.53-2.286 3.432-2.286 5.705s.762 4.175 2.286 5.705C65.584 47.235 67.504 48 69.818 48zm12.504-.044c1.26 0 2.242-.43 2.945-1.29v.984h4.065V36.721h-4.065v.984c-.703-.86-1.685-1.29-2.945-1.29-1.48 0-2.688.547-3.626 1.64-.937 1.093-1.406 2.47-1.406 4.13 0 1.662.469 3.039 1.406 4.132.938 1.093 2.147 1.64 3.626 1.64zm.99-3.716c-.587 0-1.063-.196-1.43-.59-.35-.393-.527-.881-.527-1.464s.18-1.071.539-1.465c.359-.393.831-.59 1.417-.59.586 0 1.059.197 1.418.59.359.394.538.882.538 1.465 0 .583-.18 1.07-.538 1.464-.36.394-.832.59-1.418.59zm11.844 3.41v-4.065c0-1.006.33-1.738.989-2.197.659-.459 1.428-.63 2.307-.514v-4.371c-.791 0-1.487.204-2.088.612-.6.408-1.003.983-1.208 1.727v-2.12H91.09V47.65h4.066zm8.834.306c1.26 0 2.241-.43 2.945-1.29v.984H111v-15.3h-4.065v5.355c-.704-.86-1.685-1.29-2.945-1.29-1.48 0-2.688.547-3.626 1.64-.938 1.093-1.406 2.47-1.406 4.13 0 1.662.468 3.039 1.406 4.132.938 1.093 2.146 1.64 3.626 1.64zm.989-3.716c-.586 0-1.062-.196-1.429-.59-.351-.393-.527-.881-.527-1.464s.18-1.071.538-1.465c.36-.393.832-.59 1.418-.59s1.058.197 1.417.59c.36.394.539.882.539 1.465 0 .583-.18 1.07-.539 1.464-.359.394-.831.59-1.417.59z" transform="translate(-24 -32)"/>
        </g>
    </g>
</svg>
