<svg xmlns="http://www.w3.org/2000/svg" width="33" height="32" viewBox="0 0 33 32">
    <g fill="none" fill-opacity=".4" fill-rule="evenodd">
        <g fill="#258FD2" fill-rule="nonzero">
            <g>
                <path d="M29.558 17.505c4.442-1.32 8.44.311 9.571.786 1.45.612 2.801 1.434 4.011 2.441.785.654 1.505 1.382 2.149 2.176 1.465 1.823 2.516 3.943 3.081 6.215.71 2.414.822 4.966.326 7.434-.355 1.569-.94 3.076-1.736 4.473-.496.88-1.07 1.715-1.714 2.494-.358.433-.651.741-.818.912-.881.899-3.917 3.915-8.816 4.476-4.485.513-7.841-1.347-9.197-2.096-.942-.524-1.833-1.137-2.66-1.829-.19-.157-.382-.324-.576-.5-1.564-1.36-2.84-3.02-3.753-4.881-.6-1.26-1.01-2.6-1.218-3.98-.414-.01-.822.108-1.167.337-.094.065-.215.074-.317.024-.102-.05-.17-.15-.178-.263-.008-.114.045-.223.14-.286.421-.286.917-.442 1.425-.452l-.067-.505c-.551.092-1.087.26-1.592.498-.158.076-.346.008-.421-.15-.075-.159-.008-.348.15-.423.567-.268 1.168-.455 1.787-.555-.147-1.449-.16-2.908-.04-4.359.03-.503.065-1.106.13-1.705.053-.57.157-1.135.31-1.687.083-.308.224-.596.415-.85.13-.166.31-.285.513-.339.137-.03.28-.035.42-.013.16.022.313.073.454.152.056.032.108.069.158.11.152.134.273.3.353.487.081.173.147.35.238.543.15.316.334.615.547.891.591-.097 1.201-.188 1.836-.266.872-.108 1.71-.185 2.513-.24.157-.688.452-1.337.867-1.907.035-.046.07-.09.102-.129.095-.12.206-.228.328-.32.093-.071.201-.117.316-.136.063-.008.127-.005.189.01.08.02.155.058.219.112.1.088.177.2.224.324.037.092.065.187.084.285.227 1.16.386 2.317.696 3.416.123.45.293.885.507 1.299.038.072.078.148.12.224.233-.237.515-.42.826-.538.106-.04.225-.02.312.053.087.072.13.185.11.297-.018.112-.095.205-.2.245-.28.106-.524.284-.71.517.055.09.115.183.177.28.252-.195.541-.338.85-.418.169-.043.34.06.383.23.043.169-.059.341-.228.385-.239.062-.462.174-.655.33l.063.091c.119.174.248.346.381.516.39-.258.834-.419 1.298-.47.284-.025.57.013.838.11.232.083.448.204.64.358.104.086.195.186.27.299.086.129.14.275.162.429.023.198-.01.399-.094.58-.066.14-.15.273-.251.391-.048.058-.092.106-.124.14l-.122.123c-.127.117-.268.216-.42.297.15.131.296.256.425.363.267.222.47.383.594.481.066-.776.304-1.528.695-2.201-.749-1.215-1.008-2.67-.725-4.069-.16-.094-.313-.201-.458-.319-.418-.345-.752-.782-.975-1.277-.23-.507-.305-1.071-.215-1.621.094-.482.31-.933.625-1.309.214-.266.481-.483.785-.638.31-.16.667-.207 1.01-.135.251.06.486.18.682.349l.015.012c.206.164.366.38.463.625.074.21.09.437.047.655-.1.367-.242.72-.423 1.054-.085.171-.136.358-.148.55 0 .092.018.185.055.27.06.132.15.248.263.339.386.271.837.436 1.307.477.401.054.808.064 1.211.028.132-.336.316-.65.546-.928.316-.385.716-.693 1.169-.9.335-.162.705-.238 1.076-.22.31.02.608.136.85.332.076.064.144.135.204.214.1.142.18.297.235.462.079.208.125.427.138.65.015.246-.04.49-.16.706-.04.07-.086.137-.138.2-.174.196-.384.357-.617.477-.15.07-.287.167-.405.284-.078.1-.115.225-.104.35.021.724.348 1.403.899 1.87.047.04.096.077.146.113.382.262.83.41 1.294.428.185.009.37 0 .553-.027.463-1.855.219-3.816-.684-5.5-.517-.96-1.216-1.808-2.059-2.498-.64-.52-1.329-.977-2.057-1.363-.974-.54-3.134-1.727-5.82-1.517-1.564.09-3.099.463-4.531 1.1-.32.166-.637.355-.957.516-.31.17-.647.282-.996.33-.241.027-.486-.009-.71-.104-.128-.055-.248-.13-.355-.22-.23-.197-.41-.444-.53-.722-.114-.248-.176-.517-.183-.79.015-.42.178-.823.46-1.135.318-.361.69-.67 1.103-.918.419-.258.855-.487 1.307-.685.546-.243 1.107-.454 1.678-.632zm9.326 1.37c-1.094-.463-4.948-2.016-9.146-.761-.988.304-1.937.722-2.83 1.246-.355.211-.676.476-.951.786-.187.198-.299.456-.314.728.007.185.05.365.128.533.08.189.202.357.356.493.06.05.127.092.2.124.126.053.264.072.4.056.17-.021.336-.067.493-.137.362-.149.776-.405 1.228-.64.026-.013 1.823-.941 4.776-1.171 2.898-.225 5.187 1.05 6.173 1.594.764.406 1.486.885 2.157 1.43.906.743 1.658 1.657 2.213 2.69.989 1.846 1.246 3.999.72 6.028.023.16-.08.31-.236.348-.31.07-.627.098-.944.082-.581-.023-1.144-.211-1.624-.542-.065-.046-.128-.094-.189-.144-.696-.587-1.107-1.446-1.127-2.358-.01-.274.079-.543.25-.756.165-.178.361-.324.579-.43.166-.083.317-.195.443-.332.03-.034.055-.072.078-.111.059-.111.085-.237.075-.362-.01-.158-.044-.313-.1-.46-.035-.107-.085-.207-.148-.298-.03-.04-.063-.075-.101-.106-.141-.112-.313-.177-.493-.188-.266-.01-.53.047-.77.165-.364.168-.686.416-.941.727-.213.257-.378.549-.488.864l-.003.014-.012.057c-.008.049-.019.115-.03.192-.021.155-.045.355-.066.567-.043.384-.064.77-.064 1.157 0 .032.002.058.005.08.058.08.075.183.046.278-.03.094-.101.169-.194.202-.01.006-.022.011-.033.015-1.046.268-1.98.862-2.667 1.698-.406.487-.715 1.048-.91 1.653-.507 1.666-.135 3.476.988 4.806l.041.06c.067.128.04.29-.073.387-.132.115-.332.1-.446-.031-.87-1.024-1.352-2.321-1.366-3.666-.102.037-.215.02-.3-.048-.093-.075-.343-.27-.673-.545-.228-.19-.499-.423-.787-.685-.041-.023-.076-.056-.103-.094-.832-.744-1.58-1.578-2.23-2.485l-.167-.245-.011-.01c-.037-.035-.064-.079-.08-.127-.303-.446-.58-.908-.832-1.384-.233-.452-.419-.927-.553-1.417-.325-1.156-.485-2.329-.708-3.465-.01-.054-.025-.106-.044-.156l-.016-.033c-.07.058-.135.124-.192.196-.026.032-.054.067-.084.107-.407.562-.684 1.208-.81 1.891-.03.14-.148.242-.29.25-.86.055-1.765.136-2.708.253-.691.085-1.357.184-1.997.292-.112.02-.226-.023-.298-.112-.293-.356-.541-.747-.738-1.165-.103-.22-.172-.405-.236-.54-.042-.104-.105-.197-.187-.272-.02-.017-.043-.033-.066-.046-.071-.04-.15-.065-.23-.076-.06-.01-.123-.01-.184.002-.07.023-.13.067-.173.127-.137.19-.237.404-.296.63-.095.33-.167.664-.214 1.003-.11.74-.162 1.572-.2 2.24-.132 1.528-.108 3.064.074 4.586.2 1.552.41 3.236 1.362 5.216.878 1.788 2.105 3.382 3.608 4.686.187.17.373.332.555.483.797.667 1.655 1.256 2.562 1.762 1.34.741 4.544 2.508 8.82 2.02 4.668-.532 7.583-3.418 8.435-4.289.16-.163.439-.457.784-.873.62-.75 1.171-1.553 1.65-2.4.763-1.342 1.325-2.789 1.667-4.294.475-2.37.366-4.82-.318-7.138-.542-2.185-1.552-4.226-2.961-5.979-.618-.761-1.308-1.46-2.062-2.088-1.162-.967-2.46-1.757-3.852-2.344zm-10.955 17.38c.576-.075 1.162-.025 1.717.148.592.192 1.143.492 1.626.886.248.2.463.44.635.708.173.265.264.574.264.89-.013.386-.152.758-.396 1.058-.058.07-.123.136-.193.196-.527.385-1.208.486-1.823.272-.161-.064-.315-.145-.459-.242-.256-.191-.552-.323-.866-.385-.521-.076-1.054.01-1.525.246-.102.053-.2.114-.292.18-.16.114-.303.248-.429.398-.065.078-.124.162-.176.249l-.01.016c-.057.098-.162.158-.276.157-.113-.001-.217-.063-.272-.161-.056-.1-.055-.22.003-.318l.01-.018c.071-.118.149-.227.234-.33.16-.192.344-.363.547-.508.116-.083.237-.158.364-.225.596-.304 1.273-.413 1.934-.31.318.056.62.174.893.346.171.12.353.225.543.311.134.05.276.073.419.07.277.016.55-.067.773-.233.041-.036.08-.075.115-.117.151-.19.239-.423.25-.665-.003-.194-.062-.383-.17-.543-.136-.21-.306-.397-.501-.554-.42-.34-.898-.601-1.412-.769-.469-.145-.963-.187-1.45-.123-.448.06-.885.182-1.298.365-.53.232-1.026.534-1.475.898l-.061.04c-.129.063-.289.032-.384-.084-.053-.065-.079-.148-.07-.232.007-.084.048-.16.113-.214.89-.735 1.96-1.22 3.098-1.403zm-3.4-4.316l.056.001c.04.004.08.014.118.029.036.014.071.032.104.054.022.015.135.08.29.163.158.086.367.196.611.325.154.083.212.273.13.428-.08.154-.27.214-.424.134l-.617-.328-.153-.084c-.117.227-.215.465-.29.709-.05.168-.227.263-.395.212-.167-.05-.262-.228-.211-.395.106-.353.25-.692.431-1.013.017-.03.037-.06.059-.087.046-.057.107-.1.175-.124v-.001h.003l.002-.002.055-.014c.037-.007.074-.009.112-.006zm-2.144-.01c.107-.036.225-.012.31.063.085.075.123.19.1.301-.053.259-.17.5-.34.703-.219.268-.517.458-.852.544-.5.117-1.027-.007-1.423-.336-.076-.064-.147-.135-.21-.213l-.037-.056c-.04-.079-.047-.173-.015-.258.04-.106.134-.183.246-.2.112-.019.226.025.297.114.037.045.078.087.124.125.241.2.561.276.867.208.203-.054.384-.17.517-.333.102-.122.173-.268.206-.424.023-.111.103-.202.21-.238zm9.885-.03l-.145.005c-.184.017-.365.06-.537.13-.14.054-.274.121-.403.199.401.455.826.89 1.272 1.3.226-.075.429-.207.59-.381.034-.038.07-.077.105-.119.064-.075.118-.158.161-.247.036-.073.051-.155.043-.237-.008-.059-.03-.115-.063-.164-.04-.06-.09-.112-.146-.158-.136-.107-.29-.191-.453-.25-.182-.066-.376-.09-.569-.073zm2.325-8.006c-.13-.029-.265-.025-.394.01-.308.1-.578.29-.775.548-.245.291-.413.639-.488 1.012-.07.426-.01.864.17 1.256.183.406.457.763.8 1.046.17.141.355.264.551.365.131.068.199.217.163.36-.294 1.203-.131 2.472.456 3.56.056-.074.109-.15.168-.222.706-.855 1.643-1.487 2.698-1.82-.005-.133-.002-.292.006-.468.017-.362.056-.79.097-1.135l.016-.126c-.386.02-.772.005-1.155-.046-.587-.056-1.148-.269-1.624-.618-.19-.154-.34-.351-.44-.575-.092-.215-.126-.45-.097-.683.028-.205.085-.405.17-.594.156-.299.288-.61.394-.93.041-.144.025-.299-.046-.431-.062-.11-.145-.205-.243-.284h-.001l-.009-.008c-.12-.105-.263-.18-.417-.217zm-6.24 6.158l.073.005c.172.03.288.194.258.366-.102.556-.489 1.016-1.018 1.21-.52.179-1.095.075-1.52-.273l-.03-.026-.046-.05c-.053-.07-.074-.162-.056-.25.022-.112.101-.203.208-.24.107-.036.226-.012.31.063l.018.014c.254.206.595.267.905.164.313-.117.543-.39.605-.72.03-.173.194-.288.366-.258z" transform="translate(-40 -89) translate(24 72)"/>
            </g>
        </g>
    </g>
</svg>
